<svg width="46" height="46" viewBox="0 0 46 46" fill="none" xmlns="http://www.w3.org/2000/svg">
<path d="M39.5312 5.03125H6.46875C5.67363 5.03125 5.03125 5.67363 5.03125 6.46875V39.5312C5.03125 40.3264 5.67363 40.9688 6.46875 40.9688H39.5312C40.3264 40.9688 40.9688 40.3264 40.9688 39.5312V6.46875C40.9688 5.67363 40.3264 5.03125 39.5312 5.03125ZM35.3805 15.5205H32.51C30.2594 15.5205 29.8236 16.5896 29.8236 18.1619V21.6254H35.1963L34.4955 27.0475H29.8236V40.9688H24.2219V27.052H19.5365V21.6254H24.2219V17.6273C24.2219 12.9869 27.0564 10.4578 31.1982 10.4578C33.1838 10.4578 34.8863 10.6061 35.385 10.6734V15.5205H35.3805Z" fill="white"/>
</svg>
