<svg width="46" height="46" viewBox="0 0 46 46" fill="none" xmlns="http://www.w3.org/2000/svg">
<path d="M40.1483 15.9182C40.129 14.4666 39.8572 13.0294 39.3452 11.6709C38.9012 10.525 38.2231 9.48433 37.3541 8.61538C36.4852 7.74642 35.4445 7.06828 34.2986 6.62428C32.9576 6.12088 31.5409 5.84869 30.1088 5.81928C28.265 5.73687 27.6804 5.71387 22.9999 5.71387C18.3194 5.71387 17.7195 5.71387 15.8891 5.81928C14.4576 5.8489 13.0416 6.1211 11.7011 6.62428C10.5551 7.06797 9.51426 7.746 8.64527 8.615C7.77628 9.48399 7.09824 10.5248 6.65456 11.6709C6.15015 13.0109 5.87854 14.4272 5.85147 15.8588C5.76906 17.7045 5.74414 18.2891 5.74414 22.9696C5.74414 27.6501 5.74414 28.2481 5.85147 30.0805C5.88022 31.5141 6.15047 32.9286 6.65456 34.2722C7.09899 35.4179 7.77752 36.4583 8.64681 37.3269C9.51609 38.1956 10.557 38.8733 11.7031 39.3169C13.0398 39.8405 14.4561 40.1322 15.891 40.1794C17.7367 40.2618 18.3213 40.2867 23.0018 40.2867C27.6823 40.2867 28.2822 40.2867 30.1126 40.1794C31.5447 40.1512 32.9615 39.8796 34.3025 39.3763C35.448 38.9318 36.4884 38.2535 37.3573 37.3846C38.2262 36.5157 38.9045 35.4753 39.3491 34.3297C39.8531 32.988 40.1234 31.5735 40.1521 30.138C40.2346 28.2941 40.2595 27.7095 40.2595 23.0271C40.2556 18.3466 40.2556 17.7525 40.1483 15.9182ZM22.9884 31.8208C18.0932 31.8208 14.1276 27.8552 14.1276 22.96C14.1276 18.0649 18.0932 14.0993 22.9884 14.0993C25.3384 14.0993 27.5922 15.0328 29.2539 16.6945C30.9156 18.3563 31.8491 20.61 31.8491 22.96C31.8491 25.3101 30.9156 27.5638 29.2539 29.2255C27.5922 30.8872 25.3384 31.8208 22.9884 31.8208ZM32.2018 15.8377C31.9304 15.838 31.6616 15.7847 31.4108 15.6809C31.16 15.5772 30.9322 15.425 30.7402 15.2331C30.5483 15.0412 30.3961 14.8133 30.2924 14.5625C30.1887 14.3117 30.1354 14.0429 30.1356 13.7715C30.1356 13.5003 30.1891 13.2318 30.2928 12.9812C30.3966 12.7307 30.5488 12.503 30.7405 12.3112C30.9323 12.1194 31.16 11.9673 31.4105 11.8635C31.6611 11.7597 31.9296 11.7063 32.2009 11.7063C32.4721 11.7063 32.7406 11.7597 32.9912 11.8635C33.2417 11.9673 33.4694 12.1194 33.6612 12.3112C33.8529 12.503 34.0051 12.7307 34.1089 12.9812C34.2126 13.2318 34.2661 13.5003 34.2661 13.7715C34.2661 14.9139 33.3422 15.8377 32.2018 15.8377Z" fill="white"/>
<path d="M22.9887 28.7156C26.1675 28.7156 28.7444 26.1387 28.7444 22.9599C28.7444 19.781 26.1675 17.2041 22.9887 17.2041C19.8098 17.2041 17.2329 19.781 17.2329 22.9599C17.2329 26.1387 19.8098 28.7156 22.9887 28.7156Z" fill="white"/>
</svg>
