<svg width="46" height="46" viewBox="0 0 46 46" fill="none" xmlns="http://www.w3.org/2000/svg">
<path d="M38.8125 4.3125H7.1875C6.425 4.3125 5.69373 4.6154 5.15457 5.15457C4.6154 5.69373 4.3125 6.425 4.3125 7.1875V38.8125C4.3125 39.575 4.6154 40.3063 5.15457 40.8454C5.69373 41.3846 6.425 41.6875 7.1875 41.6875H38.8125C39.575 41.6875 40.3063 41.3846 40.8454 40.8454C41.3846 40.3063 41.6875 39.575 41.6875 38.8125V7.1875C41.6875 6.425 41.3846 5.69373 40.8454 5.15457C40.3063 4.6154 39.575 4.3125 38.8125 4.3125ZM17.25 31.625C17.25 32.0062 17.0985 32.3719 16.829 32.6415C16.5594 32.9111 16.1937 33.0625 15.8125 33.0625C15.4313 33.0625 15.0656 32.9111 14.796 32.6415C14.5265 32.3719 14.375 32.0062 14.375 31.625V20.125C14.375 19.7438 14.5265 19.3781 14.796 19.1085C15.0656 18.839 15.4313 18.6875 15.8125 18.6875C16.1937 18.6875 16.5594 18.839 16.829 19.1085C17.0985 19.3781 17.25 19.7438 17.25 20.125V31.625ZM15.8125 17.25C15.386 17.25 14.9691 17.1235 14.6146 16.8866C14.26 16.6497 13.9836 16.3129 13.8204 15.9189C13.6572 15.5249 13.6145 15.0914 13.6977 14.6731C13.7809 14.2548 13.9862 13.8706 14.2878 13.5691C14.5894 13.2675 14.9736 13.0621 15.3918 12.9789C15.8101 12.8957 16.2437 12.9384 16.6377 13.1016C17.0317 13.2648 17.3684 13.5412 17.6054 13.8958C17.8423 14.2504 17.9688 14.6673 17.9688 15.0938C17.9688 15.6656 17.7416 16.2141 17.3372 16.6184C16.9328 17.0228 16.3844 17.25 15.8125 17.25ZM33.0625 31.625C33.0625 32.0062 32.9111 32.3719 32.6415 32.6415C32.3719 32.9111 32.0062 33.0625 31.625 33.0625C31.2438 33.0625 30.8781 32.9111 30.6085 32.6415C30.3389 32.3719 30.1875 32.0062 30.1875 31.625V25.1562C30.1875 24.2031 29.8089 23.289 29.1349 22.6151C28.461 21.9411 27.5469 21.5625 26.5938 21.5625C25.6406 21.5625 24.7265 21.9411 24.0526 22.6151C23.3786 23.289 23 24.2031 23 25.1562V31.625C23 32.0062 22.8485 32.3719 22.579 32.6415C22.3094 32.9111 21.9437 33.0625 21.5625 33.0625C21.1813 33.0625 20.8156 32.9111 20.546 32.6415C20.2765 32.3719 20.125 32.0062 20.125 31.625V20.125C20.1268 19.7729 20.2577 19.4337 20.493 19.1717C20.7283 18.9098 21.0516 18.7433 21.4015 18.7038C21.7513 18.6644 22.1036 18.7547 22.3913 18.9577C22.679 19.1607 22.8821 19.4623 22.9623 19.8052C23.9347 19.1455 25.0685 18.7631 26.2418 18.6992C27.4152 18.6353 28.5838 18.8922 29.6221 19.4423C30.6605 19.9924 31.5294 20.815 32.1355 21.8217C32.7416 22.8284 33.0621 23.9812 33.0625 25.1562V31.625Z" fill="white"/>
</svg>
