<svg width="46" height="46" viewBox="0 0 46 46" fill="none" xmlns="http://www.w3.org/2000/svg">
<path d="M39.5312 5.03125H6.46875C5.67363 5.03125 5.03125 5.67363 5.03125 6.46875V39.5312C5.03125 40.3264 5.67363 40.9688 6.46875 40.9688H39.5312C40.3264 40.9688 40.9688 40.3264 40.9688 39.5312V6.46875C40.9688 5.67363 40.3264 5.03125 39.5312 5.03125ZM32.6717 18.0451C32.6852 18.2563 32.6852 18.4764 32.6852 18.692C32.6852 25.2865 27.6629 32.8828 18.4854 32.8828C15.6553 32.8828 13.0318 32.0607 10.8217 30.6457C11.226 30.6906 11.6123 30.7086 12.0256 30.7086C14.3615 30.7086 16.5088 29.918 18.2203 28.5793C16.0281 28.5344 14.1863 27.0969 13.5574 25.1203C14.3256 25.2326 15.0174 25.2326 15.808 25.0305C14.6792 24.8011 13.6647 24.1881 12.9367 23.2955C12.2087 22.4029 11.8121 21.2858 11.8145 20.134V20.0711C12.4748 20.4439 13.252 20.673 14.065 20.7045C13.3815 20.249 12.821 19.6318 12.4331 18.9078C12.0452 18.1837 11.842 17.3751 11.8414 16.5537C11.8414 15.6238 12.084 14.7748 12.5197 14.0381C13.7726 15.5804 15.336 16.8418 17.1083 17.7404C18.8807 18.6389 20.8222 19.1545 22.8068 19.2535C22.1016 15.8619 24.6352 13.1172 27.6809 13.1172C29.1184 13.1172 30.4121 13.7191 31.324 14.6895C32.4516 14.4783 33.5297 14.0561 34.491 13.49C34.1182 14.6445 33.3365 15.6193 32.2988 16.2348C33.3051 16.127 34.2754 15.8484 35.1738 15.4576C34.4955 16.4549 33.6465 17.3398 32.6717 18.0451Z" fill="white"/>
</svg>
